<?xml version="1.0" encoding="UTF-8" standalone="no"?>
<!-- Created with Inkscape (http://www.inkscape.org/) -->

<svg
   xmlns:dc="http://purl.org/dc/elements/1.1/"
   xmlns:cc="http://creativecommons.org/ns#"
   xmlns:rdf="http://www.w3.org/1999/02/22-rdf-syntax-ns#"
   xmlns:svg="http://www.w3.org/2000/svg"
   xmlns="http://www.w3.org/2000/svg"
   xmlns:sodipodi="http://sodipodi.sourceforge.net/DTD/sodipodi-0.dtd"
   xmlns:inkscape="http://www.inkscape.org/namespaces/inkscape"
   width="210mm"
   height="297mm"
   viewBox="0 0 744.09448819 1052.3622047"
   id="svg2"
   version="1.1"
   inkscape:version="0.91 r13725"
   sodipodi:docname="FlyingMuffins.svg">
  <defs
     id="defs4">
    <clipPath
       id="clipPath3420"
       clipPathUnits="userSpaceOnUse">
      <path
         inkscape:connector-curvature="0"
         id="path3422"
         d="m 0,1009.134 1811.339,0 L 1811.339,0 0,0 0,1009.134 Z" />
    </clipPath>
    <clipPath
       id="clipPath3490"
       clipPathUnits="userSpaceOnUse">
      <path
         inkscape:connector-curvature="0"
         id="path3492"
         d="m 0,1009.134 1811.339,0 L 1811.339,0 0,0 0,1009.134 Z" />
    </clipPath>
    <clipPath
       id="clipPath3950"
       clipPathUnits="userSpaceOnUse">
      <path
         inkscape:connector-curvature="0"
         id="path3952"
         d="m 0,1009.134 1811.339,0 L 1811.339,0 0,0 0,1009.134 Z" />
    </clipPath>
    <clipPath
       clipPathUnits="userSpaceOnUse"
       id="clipPath6442-7">
      <rect
         style="fill:#000000;fill-opacity:0;stroke:#000000;stroke-width:0.98029566;stroke-opacity:1"
         id="rect6444-7"
         width="1127.0232"
         height="1126.7255"
         x="1981.0575"
         y="212.80289" />
    </clipPath>
    <clipPath
       clipPathUnits="userSpaceOnUse"
       id="clipPath6442-5">
      <rect
         style="fill:#000000;fill-opacity:0;stroke:#000000;stroke-width:0.98029566;stroke-opacity:1"
         id="rect6444-5"
         width="1127.0232"
         height="1126.7255"
         x="1981.0575"
         y="212.80289" />
    </clipPath>
    <clipPath
       clipPathUnits="userSpaceOnUse"
       id="clipPath6517">
      <rect
         y="-1348.2972"
         x="1981.5768"
         height="83.438599"
         width="1185.111"
         id="rect6519"
         style="fill:#000000;fill-opacity:0;stroke:#000000;stroke-opacity:1"
         transform="scale(1,-1)" />
    </clipPath>
    <clipPath
       clipPathUnits="userSpaceOnUse"
       id="clipPath6522">
      <rect
         style="fill:#000000;fill-opacity:0;stroke:#000000;stroke-width:0.68396944;stroke-opacity:1"
         id="rect6524"
         width="1190.7887"
         height="95.012321"
         x="1981.4032"
         y="-284.27148"
         transform="scale(1,-1)" />
    </clipPath>
    <clipPath
       clipPathUnits="userSpaceOnUse"
       id="clipPath6546">
      <rect
         y="-89.370392"
         x="553.5061"
         height="1117.1351"
         width="1129.8164"
         id="rect6548"
         style="fill:#000000;fill-opacity:0;stroke:#000000;stroke-width:1.00682306;stroke-opacity:1"
         transform="scale(-1,-1)" />
    </clipPath>
    <clipPath
       clipPathUnits="userSpaceOnUse"
       id="clipPath6551">
      <rect
         style="fill:#000000;fill-opacity:0;stroke:#000000;stroke-width:0.99081916;stroke-opacity:1"
         id="rect6553"
         width="1151.3611"
         height="1126.7148"
         x="1973.9523"
         y="212.80815" />
    </clipPath>
    <clipPath
       clipPathUnits="userSpaceOnUse"
       id="clipPath6577">
      <rect
         y="1269.7032"
         x="1973.5803"
         height="70.19136"
         width="1152.1045"
         id="rect6579"
         style="fill:#000000;fill-opacity:0;stroke:#000000;stroke-width:0.24738275;stroke-opacity:1" />
    </clipPath>
    <clipPath
       clipPathUnits="userSpaceOnUse"
       id="clipPath6603">
      <rect
         y="212.43622"
         x="1973.5801"
         height="69.946075"
         width="1152.105"
         id="rect6605"
         style="fill:#000000;fill-opacity:0;stroke:#000000;stroke-width:0.24695016;stroke-opacity:1" />
    </clipPath>
  </defs>
  <sodipodi:namedview
     id="base"
     pagecolor="#ffffff"
     bordercolor="#666666"
     borderopacity="1.0"
     inkscape:pageopacity="0.0"
     inkscape:pageshadow="2"
     inkscape:zoom="0.39574469"
     inkscape:cx="905.7441"
     inkscape:cy="420.27254"
     inkscape:document-units="px"
     inkscape:current-layer="layer1"
     showgrid="false"
     inkscape:window-width="1440"
     inkscape:window-height="775"
     inkscape:window-x="34"
     inkscape:window-y="0"
     inkscape:window-maximized="0" />
  <metadata
     id="metadata7">
    <rdf:RDF>
      <cc:Work
         rdf:about="">
        <dc:format>image/svg+xml</dc:format>
        <dc:type
           rdf:resource="http://purl.org/dc/dcmitype/StillImage" />
        <dc:title></dc:title>
      </cc:Work>
    </rdf:RDF>
  </metadata>
  <g
     inkscape:label="Calque 1"
     inkscape:groupmode="layer"
     id="layer1">
    <path
       style="fill:#3c3d3f;fill-opacity:1"
       d="m 606.51847,438.54012 c -0.5948,0.85512 -1.91725,1.51248 -3.72712,1.85854 -2.53908,0.48665 -3.13079,0.39396 -6.26466,-0.99029 -4.61545,-2.03312 -6.19976,-1.77821 -10.94113,1.77202 -2.08564,1.56037 -4.6085,3.01569 -5.60651,3.23429 -0.99802,0.21629 -2.58543,1.04669 -3.52783,1.84232 -0.9424,0.79564 -4.26475,2.99483 -7.38395,4.88659 -3.1192,1.89175 -6.31486,3.95577 -7.10277,4.58532 -5.09515,4.07473 -10.19494,7.32293 -12.02953,7.66204 -1.72645,0.31671 -2.82798,1.17723 -5.72702,4.46096 -1.97518,2.23627 -3.90093,4.6224 -4.27943,5.30294 -0.37851,0.67976 -1.68551,2.14744 -2.90291,3.25901 -12.78113,11.6711 -12.90318,11.82559 -14.65357,18.52978 -1.19654,4.58455 -1.35026,6.12715 -0.96481,9.66502 1.16256,10.63292 0.27037,17.04048 -3.31153,23.72535 -1.74267,3.25283 -5.35238,7.44034 -7.25032,8.40746 -2.00762,1.02428 -13.39832,3.03114 -16.30046,2.87278 -11.02764,-0.60252 -15.04135,-1.17955 -22.34341,-3.20803 -5.66523,-1.57427 -5.84599,-1.60208 -6.16038,-0.42485 -0.37078,1.3773 -2.65726,2.38459 -4.37135,1.9242 -0.64887,-0.16994 -1.6971,-1.18187 -2.3336,-2.24168 -2.85038,-4.74291 -2.74764,-4.68266 -4.7321,-2.74378 -0.9787,0.95476 -2.38226,2.61246 -3.11996,3.68232 -3.94805,5.73088 -7.34842,3.52474 -3.92719,-2.54835 0.9509,-1.68782 1.89098,-3.67537 2.09028,-4.41693 0.32443,-1.20581 0.23173,-1.30237 -0.84199,-0.90841 -1.62525,0.59479 -16.45572,8.02586 -19.95574,10.00027 -4.6533,2.62559 -11.93142,5.91937 -15.64927,7.08192 -1.92807,0.60252 -4.4965,1.57659 -5.70926,2.16443 -2.57152,1.24521 -4.87191,0.8752 -5.0349,-0.81031 -0.17766,-1.83923 -5.29753,-8.3727 -7.83274,-9.99486 -0.6257,-0.40168 -2.29267,-2.03235 -3.69777,-3.62284 -2.48424,-2.81176 -4.0925,-4.47178 -16.0919,-16.61254 -8.53491,-8.63533 -9.07177,-9.2757 -9.52753,-11.36289 -0.37078,-1.68783 -0.29353,-2.00299 0.61797,-2.60937 0.57162,-0.37851 2.29421,-2.19147 3.82909,-4.02761 5.66677,-6.77834 13.29945,-15.22597 16.55614,-18.32276 1.84309,-1.75271 3.53942,-3.37102 3.77038,-3.59658 0.92464,-0.90378 -3.97894,0.84276 -8.78055,3.1277 -7.82812,3.7248 -17.51477,7.65122 -25.62329,10.3865 -4.04383,1.36416 -8.64692,3.06435 -10.22892,3.77965 -1.58277,0.71066 -4.42697,1.82918 -6.32104,2.47651 -7.54694,2.58079 -20.60925,8.12087 -20.79696,8.82149 -0.10814,0.40941 -0.49437,0.52528 -0.86206,0.26264 -0.36306,-0.26264 -2.10805,0.11587 -3.87466,0.84353 -1.76662,0.72611 -5.49915,2.0138 -8.29314,2.85578 -2.79476,0.84121 -7.25881,2.30271 -9.91994,3.2482 -2.66189,0.94549 -6.53038,2.14435 -8.59671,2.66576 -2.06556,0.51755 -4.79002,1.37189 -6.05377,1.89176 -2.23396,0.91922 -6.586,2.27798 -10.04739,3.1385 -0.93931,0.23174 -3.92719,1.07295 -6.64007,1.86627 -2.71211,0.79331 -5.03335,1.41592 -5.15695,1.38193 -0.12359,0 -1.46845,0.36305 -2.9871,0.87442 -4.81629,1.6299 -31.52643,6.6393 -36.7583,6.89344 -2.76464,0.13132 -5.60189,0.42485 -6.30405,0.64887 -0.70294,0.22401 -4.00907,0.62569 -7.34842,0.88678 -5.45743,0.43258 -6.73199,0.32444 -12.61814,-1.09766 -3.60121,-0.86516 -6.84554,-1.48699 -7.21092,-1.37807 -1.36648,0.4094 -5.79422,-2.38768 -6.32259,-3.99517 -0.46347,-1.41283 -0.39395,-1.69014 0.76474,-2.96702 0.70294,-0.77246 1.47849,-1.35258 1.71872,-1.28769 0.23947,0.0772 0.52528,-0.66432 0.64115,-1.6129 0.14676,-1.22976 0.63341,-1.99449 1.68164,-2.64645 4.08323,-2.52749 9.95856,-11.57377 10.76424,-16.57391 0.56389,-3.51856 -0.32444,-9.60941 -1.70482,-11.65952 -1.16719,-1.73263 -1.01038,-2.8975 0.47892,-3.55949 4.05233,-1.79906 5.16931,-3.15319 6.40833,-7.76864 0.90301,-3.36561 -0.45575,-9.11117 -3.16477,-13.3512 -3.11842,-4.88504 -8.29777,-10.20343 -11.64252,-11.95537 -8.30704,-4.3505 -8.60598,-5.17781 -2.87278,-7.94708 6.73895,-3.25592 11.32195,-8.30935 12.91477,-14.24339 0.87674,-3.26597 0.57934,-7.64427 -0.54073,-7.94476 -0.4094,-0.10814 -0.52527,-0.5021 -0.25491,-0.86747 0.28581,-0.39396 -0.78791,-2.94231 -2.60396,-6.18587 -2.34056,-4.18055 -3.59349,-5.80967 -5.1724,-6.72504 -1.14633,-0.66431 -2.13276,-1.67006 -2.19224,-2.23627 -0.13132,-1.24289 1.6268,-2.0532 3.4135,-1.57427 3.85922,1.03587 10.73489,-1.39121 14.41411,-5.08897 3.16168,-3.17636 6.3674,-8.10157 6.74745,-10.36642 0.27808,-1.65384 0.12359,-1.9103 -1.5457,-2.53213 -1.87553,-0.70294 -3.02341,-1.79597 -2.79012,-2.66576 0.0772,-0.26264 2.51435,-1.24134 5.43194,-2.17834 3.08984,-0.99261 6.3195,-2.50354 7.73464,-3.61897 2.24864,-1.77357 2.47342,-2.15671 3.00874,-5.15 0.77246,-4.31651 -0.27809,-9.37149 -2.90059,-13.91819 -1.16255,-2.01844 -2.05397,-3.89088 -1.98214,-4.1597 0.31671,-1.18109 2.57307,-1.03973 5.24347,0.32443 3.30304,1.69324 12.56329,3.74798 15.07765,3.3463 8.91033,-1.42287 18.11497,-7.58092 21.27356,-14.23104 0.84198,-1.77202 2.39308,-2.72137 3.81905,-2.33901 0.30125,0.0773 2.13199,2.36991 4.07318,5.08743 4.57992,6.41374 14.1901,18.34748 18.15514,22.54271 5.73088,6.06613 12.44047,12.53008 15.35805,14.79725 1.58973,1.23517 6.54429,5.63819 11.01143,9.78399 14.24958,13.22606 17.14707,15.63537 27.62164,22.96834 13.36588,9.35604 15.6346,10.93263 19.68074,13.67486 2.30889,1.56578 7.73156,4.8526 12.04961,7.30439 4.31883,2.45179 9.19615,5.32225 10.83917,6.37898 3.3602,2.16134 16.61253,9.19305 16.95396,8.99607 0.12359,-0.0772 -0.4403,-1.39584 -1.25679,-2.94539 -1.89948,-3.62052 -2.73142,-7.9633 -2.8527,-14.90154 -0.11587,-6.67328 1.02815,-11.29491 3.89011,-15.70489 2.62559,-4.04383 3.35789,-4.80547 7.15453,-7.43956 3.697,-2.5638 8.66701,-4.68498 15.35033,-6.55047 12.36864,-3.45135 18.93687,-3.38106 35.01023,0.37851 11.96077,2.79553 14.0889,3.1331 19.5054,3.08829 4.79929,-0.0772 17.33632,-2.19533 22.73737,-3.91019 1.88326,-0.5948 6.30173,-2.30889 9.81874,-3.80282 10.49619,-4.4571 15.8702,-5.44353 24.70174,-4.53357 6.91043,0.71066 12.68766,2.26485 16.58395,4.45091 2.44561,1.3773 3.35635,1.66311 4.48491,1.40665 1.69941,-0.38623 12.9503,-6.60299 15.04058,-8.31322 1.47617,-1.20812 1.47694,-1.21276 0.73383,-2.94539 -0.88755,-2.07405 -0.61796,-3.34166 1.10231,-5.22955 1.4445,-1.58355 3.35865,-2.80326 6.19436,-3.94728 1.6855,-0.67976 2.58851,-0.59479 7.32369,0.67977 2.97011,0.80027 5.87147,1.84154 6.44619,2.31274 3.11765,2.55299 6.13719,6.19745 6.48866,7.83198 0.21629,1.01579 0.64887,2.60087 0.96481,3.52396 0.40168,1.18728 0.25491,2.96934 -0.49438,6.1148 -0.9648,4.03765 -0.95939,4.52121 0.0773,5.34543 0.60252,0.49437 1.81837,1.09998 2.69975,1.33635 2.58774,0.69522 7.98569,5.03258 8.13941,6.54043 0.0772,0.71838 0.70294,1.95355 1.40897,2.73528 2.06942,2.30502 2.10727,3.00719 0.49437,9.18069 -0.83271,3.22966 -1.53101,6.35967 -1.52638,6.96141 0,0.60252 -0.4094,1.69092 -0.91614,2.41858 z M 582.2045,407.94837 c -2.80943,0.002 -5.09437,1.06136 -15.25532,7.07497 l -7.80571,4.62008 0.35533,3.27755 c 0.19312,1.80215 0.4712,4.13885 0.61797,5.19325 0.13904,1.05364 0.13132,3.54637 0,5.53932 -0.54845,7.14371 -0.91382,6.99076 5.23806,2.20846 3.018,-2.34596 7.50677,-5.57407 9.974,-7.17229 6.50798,-4.21686 6.7629,-4.48568 6.29324,-6.65089 -2.10109,-9.67738 -1.85468,-10.89864 2.36527,-11.72904 1.44682,-0.28581 3.17095,-0.57162 3.83218,-0.64114 2.00144,-0.20856 -2.91063,-1.7195 -5.59261,-1.71718 z m -6.43768,31.19504 c -0.57162,-0.91459 -1.63684,-2.20228 -2.36064,-2.86273 -1.49162,-1.36108 -1.82841,-1.22281 -6.39597,2.63563 -7.80494,6.59218 -9.22627,8.20585 -11.43473,12.98429 -1.18882,2.57075 -2.46647,5.11755 -2.84111,5.65904 -0.37851,0.54073 0.4094,0.23174 1.74267,-0.69521 1.33172,-0.92386 4.26321,-2.89518 6.51416,-4.38062 2.25017,-1.48622 6.6362,-4.38372 9.74613,-6.43846 3.10992,-2.05475 5.74865,-4.07473 5.86529,-4.48877 0.10815,-0.41713 -0.26264,-1.50012 -0.8358,-2.41394 z m -10.34865,-33.0783 c -1.17801,-1.42596 -2.39849,-2.66189 -2.71134,-2.74532 -0.31671,-0.085 -2.34982,0.86207 -4.52739,2.10264 l -3.95809,2.25558 1.61985,3.13233 c 0.89065,1.72181 1.79288,3.68927 2.00376,4.37058 0.35534,1.15406 0.71839,1.03046 5.2651,-1.7952 3.2621,-2.02848 4.80856,-3.3154 4.66488,-3.88084 -0.11587,-0.46348 -1.17877,-2.0138 -2.35677,-3.43977 z m -8.52565,23.13056 c -0.29353,-5.88538 -2.46029,-14.76481 -4.37676,-17.89791 -2.43788,-3.98512 -5.41958,-5.98811 -11.81401,-7.93703 -13.15655,-4.00907 -24.2205,-2.64336 -38.28777,4.72514 -3.8708,2.02694 -22.70648,5.76101 -28.98426,5.74556 -3.52551,0 -6.8131,-0.52527 -13.44159,-2.11963 -16.56773,-3.97972 -26.31386,-4.8047 -34.20609,-2.89364 -10.91564,2.64104 -12.89545,3.32235 -17.79362,6.12098 -4.48954,2.56457 -5.54086,3.45367 -7.33683,6.20363 -3.39497,5.19866 -4.18906,8.14096 -4.03534,14.90926 0.19312,7.87909 1.76276,13.42304 4.81089,17.00262 1.29464,1.52021 2.63949,2.84111 2.9871,2.93381 0.34761,0.0927 1.6438,1.75503 2.88051,3.69236 1.2367,1.93733 2.42552,3.56954 2.64104,3.62747 0.21629,0.0772 0.99184,0.94858 1.72336,1.9775 0.73383,1.02969 2.99174,3.5062 5.02408,5.50378 10.52709,10.34865 11.40615,11.37062 20.77301,24.14094 0.39395,0.54072 1.29078,1.60903 1.98908,2.37608 0.69522,0.76474 3.07748,3.78197 5.28749,6.69955 2.20924,2.91836 5.62274,6.71809 7.58711,8.44454 2.17139,1.90875 3.93414,4.01448 4.49958,5.37401 1.20195,2.88823 7.99188,10.58811 11.34281,12.86224 5.94099,4.03224 23.66201,6.73508 33.25983,5.07352 9.5731,-1.6577 13.00591,-5.00014 15.76901,-15.3542 1.31627,-4.90435 1.4136,-6.2129 1.05827,-13.14264 -0.22402,-4.4177 -0.0927,-9.43561 0.30898,-11.78311 0.65659,-3.81441 0.62569,-4.08632 -0.52527,-4.05928 -3.21189,0.0772 -5.01713,-0.39396 -7.65509,-1.99681 -2.3251,-1.40974 -3.33548,-2.55762 -5.39563,-6.1287 -3.00796,-5.21488 -3.44595,-6.8973 -2.87201,-11.03074 0.36306,-2.60937 0.65659,-3.276 1.83228,-4.1288 2.05011,-1.48853 3.02032,-0.4403 2.60164,2.82257 -0.51755,4.0392 -0.32443,6.20595 0.68749,7.80185 1.453,2.28185 4.48259,4.71356 7.86365,6.31178 4.5158,2.13508 6.1596,1.77511 10.20652,-2.22932 1.76739,-1.74886 3.73098,-3.51547 4.3644,-3.92565 1.46072,-0.94626 4.39685,-4.04769 10.88242,-11.49498 10.84303,-12.45206 11.97623,-14.40716 14.63349,-25.26023 1.67702,-6.85559 1.91107,-8.6307 1.69787,-12.97038 z m -39.39316,1.25447 c -1.52561,1.76121 -3.30304,3.40655 -3.94882,3.65683 -0.95862,0.37078 -1.11852,0.69522 -0.86902,1.76585 0.16994,0.71838 0.10042,2.06787 -0.14677,2.99328 -0.3476,1.29464 -0.79949,1.71795 -1.95123,1.83537 -1.85391,0.18539 -3.77733,-1.10153 -4.17283,-2.80172 -0.27809,-1.2004 -0.37851,-1.21199 -3.85303,-0.45575 -1.96051,0.42485 -4.31497,0.62569 -5.23033,0.44803 -1.44064,-0.27036 -1.63376,-0.533 -1.43601,-1.86318 0.13904,-0.91691 0.48665,-1.47385 0.87597,-1.37034 1.31087,0.34761 12.2126,-2.92763 14.95947,-4.49958 1.56732,-0.8976 3.47298,-2.58775 4.25935,-3.77733 1.55573,-2.35446 2.96316,-3.08676 4.20141,-2.18607 1.18804,0.86361 0.4094,2.67967 -2.68894,6.25461 z m -70.40359,88.73562 c -1.50553,0.83658 -3.30922,2.14049 -4.00753,2.8975 -0.69521,0.75701 -2.85192,2.34905 -4.78693,3.53787 -1.93347,1.18882 -3.42586,2.31738 -3.31618,2.50818 0.10815,0.19311 3.75416,-1.9157 8.09771,-4.68034 4.34431,-2.76386 7.6404,-5.19634 7.32524,-5.4049 -0.31671,-0.20857 -1.80601,0.30126 -3.31231,1.14169 z m -7.14449,-6.20285 c -2.26871,0.84816 -5.11137,2.41393 -6.31795,3.47993 -1.9466,1.72104 -1.51402,1.58123 3.85535,-1.25061 3.32621,-1.75503 6.28087,-3.12847 6.56514,-3.05199 0.28581,0.0772 0.4094,-0.0773 0.27036,-0.29354 -0.13904,-0.23174 -2.10341,0.26264 -4.37212,1.11312 z m 0.0772,-6.7011 c -2.16135,-2.36991 -2.70979,-2.45797 -5.08356,-0.81803 -1.2483,0.86129 -4.342,2.85578 -6.87645,4.43006 -2.53444,1.57504 -5.5339,3.79741 -6.66556,4.93834 -1.13242,1.14092 -2.96238,2.65108 -4.06623,3.35634 -4.63244,2.95543 -13.02986,10.7426 -13.47016,12.49145 -0.30899,1.27379 19.94647,-11.27251 25.1992,-15.59597 2.92145,-2.40467 6.56051,-4.80857 8.45458,-5.58566 1.82841,-0.74929 3.3687,-1.52947 3.42354,-1.7334 0.0772,-0.20084 -0.35533,-0.87057 -0.91536,-1.48313 z m -6.67097,-7.21014 c -1.01192,-1.07604 -2.32433,-0.18539 -16.46345,11.15201 -6.59604,5.28981 -9.96937,8.31862 -9.72914,8.73498 0.71839,1.24675 7.34765,-3.25824 14.26117,-9.69052 2.42243,-2.25326 6.1426,-5.19479 8.26764,-6.5381 4.06932,-2.56998 4.38835,-2.889 3.66378,-3.65837 z m -6.41065,-5.99121 c -1.89793,0.87134 -14.12598,10.71635 -14.35077,11.55369 -0.0772,0.16994 -2.24477,2.13586 -4.88813,4.37445 -4.77921,4.04537 -6.94751,6.12097 -6.51493,6.23761 0.37078,0.10042 10.12309,-6.70032 12.81126,-8.93427 2.81716,-2.34133 9.13434,-6.9058 13.06925,-9.44333 l 2.63332,-1.69864 -0.89064,-1.26993 c -0.71067,-1.01655 -1.08531,-1.17954 -1.86936,-0.81958 z m -3.90556,-6.20285 c -1.46072,-1.3325 -1.49239,-1.3325 -3.38492,-7.8e-4 -1.05132,0.74157 -4.46405,4.25858 -7.58556,7.81962 -7.92004,9.03779 -7.90382,9.02157 -11.40229,11.56373 -3.293,2.39386 -4.33505,3.74257 -4.59537,5.94718 -0.18539,1.58122 -0.33988,1.69709 13.09707,-10.03195 4.8217,-4.21068 10.32239,-8.82304 12.22264,-10.24978 1.90025,-1.42673 3.38029,-2.84342 3.28914,-3.14932 -0.0927,-0.30126 -0.82963,-1.15869 -1.64071,-1.8987 z m -12.21183,51.38561 c -0.71066,-0.18539 -2.72833,0.51755 -2.8581,1.00497 -0.19311,0.73384 1.10925,1.00034 2.10418,0.42485 0.86593,-0.5021 1.28229,-1.28923 0.75701,-1.43137 z m 6.02288,-58.14078 c -0.98025,-1.10848 -1.98059,-2.06865 -2.22391,-2.13354 -0.23947,-0.0772 -1.9945,1.89485 -3.89166,4.35436 -1.89794,2.46106 -4.93911,6.30791 -6.75903,8.54805 -1.81914,2.24091 -4.84024,6.15883 -6.715,8.70563 -1.87476,2.5468 -3.92332,5.09206 -4.55211,5.65518 -0.63341,0.5639 -1.04436,1.19886 -0.92231,1.41129 0.27036,0.46347 11.93683,-9.83883 16.20699,-14.30983 2.21619,-2.32279 9.41861,-9.24481 10.57421,-10.16481 0.0772,0 -0.74156,-0.95785 -1.71718,-2.06633 z m -11.5815,40.75115 c -1.13629,0.74156 -2.17216,1.74885 -2.30271,2.23395 -0.13904,0.51755 0.79332,0.10042 2.24941,-1.01037 2.96007,-2.25327 2.99869,-3.1501 0.0772,-1.22281 z m 5.32843,-48.05245 c -0.23946,-0.0772 -1.1162,0.94781 -1.94737,2.25018 -0.8304,1.3016 -2.62791,3.90633 -3.99517,5.78727 -1.36725,1.88017 -2.89363,4.09713 -3.39187,4.92676 -0.86207,1.43523 -0.85125,1.46613 0.23946,0.64886 1.47231,-1.10307 6.04142,-6.49793 6.30946,-7.4496 0.10814,-0.40168 1.03664,-1.55265 2.05397,-2.56457 1.73726,-1.72645 2.04548,-3.24511 0.72611,-3.5989 z m -8.58281,4.81011 c -0.65659,0.68749 -2.31429,2.86815 -3.69236,4.84642 -1.37807,1.97827 -3.94418,5.18089 -5.70384,7.11745 -3.30073,3.63134 -4.96306,6.62076 -1.83537,3.3015 2.62173,-2.7824 11.92215,-14.76481 12.18788,-15.70103 0.12359,-0.44803 -0.30126,-0.25492 -0.95631,0.43257 z m -3.14854,-3.58035 c -3.39806,2.64027 -13.19517,14.03174 -12.74251,14.81579 0.38623,0.66432 6.08853,-5.07043 9.73918,-9.78475 4.05542,-5.23806 4.73518,-6.37667 3.00333,-5.03104 z m 0.33988,-8.87093 c -1.24984,-0.54073 -1.2568,-0.52528 -0.54845,0.86129 0.39396,0.774 0.98334,1.32786 1.30391,1.2313 1.00575,-0.30126 0.5639,-1.52406 -0.75701,-2.09259 z m -4.26707,0.40167 c -0.45576,0.26264 -1.33868,0.33989 -1.96051,0.17767 -0.62569,-0.16994 -3.2003,0.0927 -5.72856,0.57162 -4.75682,0.90841 -20.45862,2.906 -21.22413,2.70052 -0.23946,-0.0772 -1.93733,0.13905 -3.77578,0.44803 -1.83691,0.30898 -3.58499,0.49437 -3.88316,0.41713 -0.70294,-0.19312 -14.29438,1.05363 -18.63098,1.7025 -3.75879,0.5639 -11.95846,1.10539 -18.12655,1.19963 -2.25713,0 -7.15067,0.16222 -10.87624,0.28581 -6.39289,0.20857 -20.18671,-0.32443 -30.33298,-1.16873 -2.51281,-0.20856 -8.87634,-0.47893 -14.14221,-0.59479 -5.26586,-0.11587 -12.65676,-0.47893 -16.42405,-0.79255 -3.76729,-0.31671 -9.61018,-0.57162 -12.98429,-0.5639 -3.37333,0 -8.04826,-0.18539 -10.38882,-0.4403 -2.34055,-0.25491 -7.05333,-0.57162 -10.47224,-0.71839 -3.41814,-0.14676 -6.89035,-0.4403 -7.71534,-0.66431 -1.33713,-0.35533 -1.63684,-0.14677 -2.76927,1.97672 -0.97871,1.83383 -1.25138,2.98711 -1.19036,5.02718 0,1.45608 -0.16222,3.53709 -0.44803,4.62549 -0.73383,2.74687 -3.7109,7.83198 -5.1075,8.73344 -1.08299,0.69521 -1.11776,0.9648 -0.51755,3.96504 0.35533,1.76816 0.71838,4.22072 0.80876,5.44816 0.16994,2.25481 0.57162,2.8218 1.44605,2.00145 0.26264,-0.24719 2.3784,-0.48665 4.70351,-0.54073 3.58113,-0.0772 21.91238,-0.97639 39.75081,-1.94969 6.19745,-0.33988 12.06506,-1.01192 17.84925,-2.05011 2.57538,-0.46347 4.91207,-0.77941 5.19248,-0.70294 0.27808,0.0772 3.45521,-0.13904 7.05565,-0.47892 10.92568,-1.03124 24.25989,-3.79587 44.08663,-9.14362 2.68508,-0.72611 6.37666,-1.70327 8.20353,-2.17602 1.82687,-0.4712 5.88306,-1.68319 9.01307,-2.68893 3.13078,-1.00574 5.84212,-1.78902 6.02442,-1.73958 0.18539,0.0772 2.67117,-0.68749 5.52927,-1.63144 7.7725,-2.57306 8.42368,-2.7515 16.13902,-4.4262 14.44269,-3.13541 17.76427,-3.73793 23.6257,-4.28792 6.60145,-0.61797 7.53072,-0.87134 7.86983,-2.13586 0.17766,-0.66431 0.0772,-0.74928 -0.5948,-0.3785 z m -12.72706,36.98077 c -0.40941,0.37079 -0.83194,1.04592 -0.93622,1.50012 -0.11587,0.54845 0.0772,0.49438 0.57162,-0.13904 1.04514,-1.324 1.2761,-2.18452 0.36305,-1.36108 z m 5.81663,-49.23894 c -2.78163,-1.3912 -6.50798,-3.48534 -8.28155,-4.65253 -1.77357,-1.16796 -5.62042,-3.47298 -8.54959,-5.12373 -11.22849,-6.32722 -18.305,-10.85848 -28.14537,-18.01996 -1.34331,-0.97716 -5.08974,-3.65837 -8.32558,-5.95721 -7.77868,-5.52618 -13.94755,-10.47379 -18.8882,-15.14718 -2.22237,-2.10186 -7.86906,-7.17847 -12.54708,-11.28024 -4.67802,-4.10253 -9.13434,-8.0529 -9.90217,-8.77901 -7.2395,-6.84014 -13.58989,-13.27628 -14.77176,-14.97183 -0.27036,-0.39395 -2.22932,-2.75845 -4.34123,-5.25196 -2.11268,-2.4935 -5.29058,-6.49871 -7.06183,-8.90028 -3.4977,-4.74137 -5.35701,-6.97532 -5.94099,-7.13677 -0.20857,-0.0772 -1.60595,1.3016 -3.11147,3.01878 -3.61357,4.12339 -9.49277,7.90227 -15.42836,9.91607 -2.64953,0.89915 -5.28671,1.67084 -5.86065,1.71487 -0.57162,0.0772 -1.09921,0.29353 -1.16874,0.54844 -0.20856,0.78019 3.64525,5.15463 5.90701,6.70341 1.16564,0.79873 3.49538,2.8612 5.17548,4.58378 1.68088,1.72259 3.38029,3.22039 3.77734,3.32776 0.39395,0.10815 1.35103,0.85743 2.1204,1.66543 1.67392,1.75812 19.63903,14.65589 24.68088,17.71947 0.96558,0.58707 3.97199,2.60087 6.68024,4.47563 2.70747,1.87399 6.26543,4.27789 7.90536,5.34234 1.64148,1.06522 4.32269,2.81639 5.96108,3.89166 7.14526,4.69346 18.35057,11.46872 22.60142,13.66559 2.53753,1.31164 5.54395,3.02341 6.68101,3.8036 3.39033,2.32742 9.59705,5.72856 15.93277,8.72957 3.27523,1.55188 8.14868,3.94959 10.82912,5.32844 12.77031,6.56977 16.62412,8.37269 21.79806,10.19879 6.16887,2.17679 15.17962,4.54979 17.42284,4.58764 1.24058,0 1.33636,-0.085 0.67977,-0.72611 -0.42485,-0.4094 -3.04349,-1.88635 -5.82512,-3.27832 z m -2.69744,18.20535 c -5.94099,0.5021 -27.56216,5.25427 -34.4247,7.56856 -3.14777,1.06214 -7.00853,2.23319 -8.57971,2.60397 -1.57119,0.37078 -4.03147,1.13629 -5.46748,1.70173 -1.436,0.56389 -4.20527,1.38039 -6.15342,1.80987 -1.94892,0.43258 -4.76917,1.24984 -6.26851,1.82301 -1.49935,0.57162 -2.94771,0.98025 -3.21962,0.90841 -0.42485,-0.11587 -5.06502,1.08145 -14.29283,3.67846 -6.48558,1.82455 -25.43481,5.20716 -32.1892,5.74556 -4.26553,0.33988 -11.04387,1.12779 -15.06375,1.75194 -8.69714,1.34949 -16.18459,2.04934 -21.99504,2.05784 -2.3336,0.003 -5.1948,0.12359 -6.35658,0.26263 -4.52198,0.55617 -17.24749,1.47308 -21.43114,1.55033 -2.42012,0.0772 -5.55013,0.17767 -6.95678,0.29354 -2.02307,0.16994 -2.68507,0 -3.17636,-0.67205 -0.49437,-0.69521 -0.66431,-0.72611 -0.82576,-0.13131 -0.10814,0.4094 -1.13706,2.86042 -2.27644,5.44352 -1.7473,3.96118 -3.40964,6.50489 -8.24678,12.62046 -0.40168,0.5021 -0.21629,0.67977 0.72611,0.68749 1.87553,0 1.77588,0.791 -0.31671,2.45256 l -1.86704,1.4839 2.79013,1.12857 c 6.18818,2.50354 10.76346,3.42509 14.56474,2.93457 1.99604,-0.26263 3.87389,-0.4094 4.17438,-0.33215 0.30126,0.085 1.33404,0 2.29575,-0.24719 0.96249,-0.20857 3.92642,-0.48665 6.586,-0.61025 6.64238,-0.30898 6.36893,-0.27036 14.30828,-1.80369 15.40054,-2.96548 23.67282,-4.68806 25.28263,-5.26664 0.92773,-0.33215 5.78187,-1.6716 10.78664,-2.97397 5.00477,-1.30237 10.13777,-2.80866 11.40615,-3.34939 1.26915,-0.54072 4.4038,-1.54955 6.96682,-2.24399 2.56302,-0.69522 7.01471,-2.11268 9.8929,-3.14933 2.87819,-1.03741 7.38627,-2.56611 10.01804,-3.39882 7.47124,-2.36296 25.62637,-9.29038 36.74517,-14.0217 1.81219,-0.77246 6.55819,-2.48501 10.54795,-3.80901 8.36497,-2.77622 21.37398,-8.22052 25.43248,-10.64218 1.53256,-0.9146 3.79896,-2.00917 5.03645,-2.43171 2.22314,-0.75701 6.14801,-3.11997 5.91009,-3.55486 -0.0772,-0.12359 -2.03157,-0.0772 -4.3644,0.13132 z M 374.9371,455.72273 c -5.71389,-2.14512 -16.57005,-7.31134 -19.92793,-9.48349 -0.8219,-0.533 -3.47916,-1.88713 -5.90624,-3.0126 -9.70519,-4.5019 -17.77817,-8.70099 -22.18351,-11.53824 -2.5499,-1.64302 -6.24535,-3.78351 -8.21203,-4.75836 -1.96591,-0.97407 -5.48215,-2.98478 -7.81344,-4.46714 -2.33128,-1.48312 -6.21444,-3.8538 -8.62838,-5.26895 -4.20219,-2.4626 -7.93626,-4.91439 -22.72965,-14.92239 -3.66841,-2.48114 -7.68907,-5.11909 -8.93428,-5.8622 -1.2452,-0.74156 -3.80591,-2.46106 -5.68839,-3.81827 -1.88326,-1.35722 -5.41032,-3.87544 -7.83816,-5.59571 -2.42784,-1.72027 -5.04957,-3.69622 -5.82667,-4.39143 -4.47177,-4.00444 -12.50073,-10.74493 -13.56981,-11.3938 -1.4391,-0.87288 -5.68454,-6.04759 -6.0306,-7.3515 -0.16222,-0.61025 -1.59822,-1.31241 -4.67261,-2.28494 -2.44098,-0.774 -4.4571,-1.33481 -4.48027,-1.24984 0,0.085 0.50982,1.93656 1.18263,4.11644 2.78163,9.00535 1.02738,14.77949 -5.79268,19.06973 l -2.02075,1.27147 2.03079,3.1246 c 2.42862,3.7364 14.54389,14.08736 23.60099,20.16199 6.87799,4.61391 17.91181,10.89788 23.54536,13.40837 2.15053,0.95863 5.40491,2.53831 7.23101,3.50929 1.82609,0.97175 4.97928,2.43711 7.00621,3.25669 27.33197,11.05005 26.18718,10.67232 57.64718,19.02957 16.03396,4.25934 30.64428,8.0583 32.46806,8.44299 1.823,0.38623 5.26431,1.18263 7.64813,1.77202 2.38304,0.58707 4.2578,0.94627 4.16356,0.79873 -0.0927,-0.14677 -2.91527,-1.3016 -6.26929,-2.56071 z m -6.83396,7.38318 c -3.5116,-0.58707 -7.15298,-1.02042 -8.09152,-0.97021 -0.93777,0.0772 -4.38371,-0.20857 -7.65431,-0.57935 -3.27214,-0.37078 -8.18654,-0.65659 -10.92104,-0.63341 -11.99709,0.085 -18.96159,-1.2568 -54.39667,-10.47689 -43.33735,-11.27714 -63.43522,-16.15755 -71.79247,-17.43365 -14.28588,-2.18066 -14.51221,-2.23242 -14.63117,-3.3687 -0.23174,-2.20692 1.1247,-2.19534 15.78986,0.13904 7.5145,1.19499 40.1579,9.36763 84.23758,21.09049 18.70899,4.97387 28.04804,6.61071 40.14477,7.02939 10.55722,0.36305 23.18926,1.42364 28.83131,2.41471 10.23433,1.79751 3.78738,-0.20857 -24.8485,-7.75087 -31.16337,-8.20508 -39.6195,-10.75188 -53.39865,-16.08649 -12.48064,-4.83328 -15.82694,-6.26002 -20.14808,-8.5859 -2.25481,-1.2143 -6.4879,-3.27059 -9.40625,-4.56987 -5.85989,-2.6086 -17.36105,-9.20232 -24.21046,-13.88034 -5.74092,-3.92101 -19.15315,-15.16109 -21.51611,-18.03078 -2.0841,-2.53212 -1.58818,-2.84651 -4.7993,3.04582 -3.84531,7.05797 -8.15563,11.02069 -14.34536,13.1913 l -4.45555,1.56192 2.90213,5.4049 c 1.59591,2.97398 3.36639,7.24414 3.93414,9.49122 1.02351,4.04615 1.01888,4.12958 -0.55617,8.78365 -1.34099,3.95114 -2.05861,5.22029 -4.52275,7.98106 -1.61213,1.80524 -4.52817,4.30261 -6.48095,5.54936 l -3.551,2.2664 2.87587,1.42673 c 3.01492,1.49471 9.3854,7.2256 10.74724,9.66734 0.44031,0.78482 1.79829,2.82953 3.02341,4.54516 1.93656,2.70902 2.26718,2.97088 2.52827,1.99913 0.44802,-1.6747 3.10606,-2.88128 4.6533,-2.11268 0.71066,0.35533 3.8399,0.80413 6.9591,1.00265 3.11919,0.20084 7.87523,0.5639 10.5688,0.80413 2.69357,0.23947 7.91849,0.46348 11.61085,0.49438 3.69313,0 10.85462,0.40168 15.91423,0.82267 5.06039,0.42485 12.18479,0.79409 15.83235,0.82421 3.64679,0 9.06637,0.27809 12.04189,0.55618 11.78465,1.09689 28.11678,1.63452 34.461,1.13474 1.33018,-0.10814 5.38868,-0.23174 9.01848,-0.27809 3.63056,-0.0772 10.17871,-0.51754 14.55238,-1.049 4.3729,-0.52527 11.97004,-1.25138 16.88212,-1.6098 9.87977,-0.71839 19.08904,-1.9018 18.79628,-2.41008 -0.10815,-0.17767 -3.06821,-0.78946 -6.57518,-1.39197 z"
       id="path26172"
       inkscape:connector-curvature="0"
       sodipodi:nodetypes="ccccccccccccccccccccccccccccccccscccccccscccccccccsccccccccccccsccsccscccccccccccccsccccccccccccccccccccccccscccccccccccccccccccccccccsccccccscccccccccscsccsscscccsccccccccccccccccccccccccccccccccccccccccccccccsccccccccccccccccccccccccccccccccccccccsccccccscccccccccccccccsscccccccscccccccccccscscccsccscccccccccccccccccccsccccccccccccccccccccccccccccccccccscccsccscccccccccccccccccccccccccccccccccccccccccccccccccccccscccccccccscccccccccccccccccccccccccccccscccccccccccccccccccccccccccccscccscccccc"
       inkscape:export-xdpi="100"
       inkscape:export-ydpi="100" />
  </g>
</svg>
