<?xml version="1.0" encoding="UTF-8" standalone="no"?>
<!-- Created with Inkscape (http://www.inkscape.org/) -->

<svg
   xmlns:dc="http://purl.org/dc/elements/1.1/"
   xmlns:cc="http://creativecommons.org/ns#"
   xmlns:rdf="http://www.w3.org/1999/02/22-rdf-syntax-ns#"
   xmlns:svg="http://www.w3.org/2000/svg"
   xmlns="http://www.w3.org/2000/svg"
   xmlns:sodipodi="http://sodipodi.sourceforge.net/DTD/sodipodi-0.dtd"
   xmlns:inkscape="http://www.inkscape.org/namespaces/inkscape"
   width="22mm"
   height="64mm"
   viewBox="0 0 77.952754 226.77166"
   id="svg2"
   version="1.1"
   inkscape:version="0.92.2 5c3e80d, 2017-08-06"
   sodipodi:docname="fm_small.svg">
  <defs
     id="defs4">
    <clipPath
       id="clipPath3420"
       clipPathUnits="userSpaceOnUse">
      <path
         inkscape:connector-curvature="0"
         id="path3422"
         d="M 0,1009.134 H 1811.339 V 0 H 0 Z" />
    </clipPath>
    <clipPath
       id="clipPath3490"
       clipPathUnits="userSpaceOnUse">
      <path
         inkscape:connector-curvature="0"
         id="path3492"
         d="M 0,1009.134 H 1811.339 V 0 H 0 Z" />
    </clipPath>
    <clipPath
       id="clipPath3950"
       clipPathUnits="userSpaceOnUse">
      <path
         inkscape:connector-curvature="0"
         id="path3952"
         d="M 0,1009.134 H 1811.339 V 0 H 0 Z" />
    </clipPath>
    <clipPath
       clipPathUnits="userSpaceOnUse"
       id="clipPath6442-7">
      <rect
         style="fill:#000000;fill-opacity:0;stroke:#000000;stroke-width:0.98029566;stroke-opacity:1"
         id="rect6444-7"
         width="1127.0232"
         height="1126.7255"
         x="1981.0575"
         y="212.80289" />
    </clipPath>
    <clipPath
       clipPathUnits="userSpaceOnUse"
       id="clipPath6442-5">
      <rect
         style="fill:#000000;fill-opacity:0;stroke:#000000;stroke-width:0.98029566;stroke-opacity:1"
         id="rect6444-5"
         width="1127.0232"
         height="1126.7255"
         x="1981.0575"
         y="212.80289" />
    </clipPath>
    <clipPath
       clipPathUnits="userSpaceOnUse"
       id="clipPath6517">
      <rect
         y="-1348.2972"
         x="1981.5768"
         height="83.438599"
         width="1185.111"
         id="rect6519"
         style="fill:#000000;fill-opacity:0;stroke:#000000;stroke-opacity:1"
         transform="scale(1,-1)" />
    </clipPath>
    <clipPath
       clipPathUnits="userSpaceOnUse"
       id="clipPath6522">
      <rect
         style="fill:#000000;fill-opacity:0;stroke:#000000;stroke-width:0.68396944;stroke-opacity:1"
         id="rect6524"
         width="1190.7887"
         height="95.012321"
         x="1981.4032"
         y="-284.27148"
         transform="scale(1,-1)" />
    </clipPath>
    <clipPath
       clipPathUnits="userSpaceOnUse"
       id="clipPath6546">
      <rect
         y="-89.370392"
         x="553.5061"
         height="1117.1351"
         width="1129.8164"
         id="rect6548"
         style="fill:#000000;fill-opacity:0;stroke:#000000;stroke-width:1.00682306;stroke-opacity:1"
         transform="scale(-1)" />
    </clipPath>
    <clipPath
       clipPathUnits="userSpaceOnUse"
       id="clipPath6551">
      <rect
         style="fill:#000000;fill-opacity:0;stroke:#000000;stroke-width:0.99081916;stroke-opacity:1"
         id="rect6553"
         width="1151.3611"
         height="1126.7148"
         x="1973.9523"
         y="212.80815" />
    </clipPath>
    <clipPath
       clipPathUnits="userSpaceOnUse"
       id="clipPath6577">
      <rect
         y="1269.7032"
         x="1973.5803"
         height="70.19136"
         width="1152.1045"
         id="rect6579"
         style="fill:#000000;fill-opacity:0;stroke:#000000;stroke-width:0.24738275;stroke-opacity:1" />
    </clipPath>
    <clipPath
       clipPathUnits="userSpaceOnUse"
       id="clipPath6603">
      <rect
         y="212.43622"
         x="1973.5801"
         height="69.946075"
         width="1152.105"
         id="rect6605"
         style="fill:#000000;fill-opacity:0;stroke:#000000;stroke-width:0.24695016;stroke-opacity:1" />
    </clipPath>
  </defs>
  <sodipodi:namedview
     id="base"
     pagecolor="#ffffff"
     bordercolor="#666666"
     borderopacity="1.0"
     inkscape:pageopacity="0.0"
     inkscape:pageshadow="2"
     inkscape:zoom="1.4502309"
     inkscape:cx="52.092806"
     inkscape:cy="180.94318"
     inkscape:document-units="px"
     inkscape:current-layer="layer1"
     showgrid="false"
     inkscape:window-width="1280"
     inkscape:window-height="775"
     inkscape:window-x="34"
     inkscape:window-y="0"
     inkscape:window-maximized="0"
     units="mm" />
  <metadata
     id="metadata7">
    <rdf:RDF>
      <cc:Work
         rdf:about="">
        <dc:format>image/svg+xml</dc:format>
        <dc:type
           rdf:resource="http://purl.org/dc/dcmitype/StillImage" />
        <dc:title></dc:title>
      </cc:Work>
    </rdf:RDF>
  </metadata>
  <g
     inkscape:label="Calque 1"
     inkscape:groupmode="layer"
     id="layer1"
     transform="translate(0,-825.59056)">
    <path
       style="fill:#3c3d3f;fill-opacity:1;stroke-width:0.06493559"
       d="m 35.39826,859.38624 c -0.03862,0.0557 -0.124498,0.0982 -0.242022,0.12067 -0.164877,0.0314 -0.203301,0.0258 -0.4068,-0.0641 -0.299707,-0.13203 -0.402585,-0.11545 -0.710468,0.11511 -0.135432,0.10131 -0.299257,0.19579 -0.364063,0.21 -0.06481,0.0139 -0.167886,0.0683 -0.229081,0.11964 -0.0612,0.0516 -0.276934,0.19446 -0.479482,0.3173 -0.202546,0.12284 -0.41006,0.2569 -0.461222,0.29773 -0.330856,0.26463 -0.662015,0.47554 -0.781145,0.49756 -0.112107,0.0202 -0.183636,0.0764 -0.371887,0.28965 -0.128259,0.14527 -0.253308,0.30016 -0.277888,0.34441 -0.02457,0.0439 -0.109449,0.13942 -0.188502,0.21161 -0.829949,0.75787 -0.837876,0.7679 -0.951538,1.20324 -0.0777,0.29766 -0.08768,0.39785 -0.06265,0.62758 0.07549,0.69049 0.01756,1.10653 -0.215037,1.54061 -0.113161,0.21126 -0.347559,0.48314 -0.470803,0.54599 -0.130366,0.0669 -0.870028,0.19676 -1.05848,0.18652 -0.716086,-0.039 -0.976719,-0.0766 -1.450883,-0.20833 -0.367875,-0.10222 -0.379612,-0.10403 -0.400028,-0.0279 -0.02408,0.0895 -0.17255,0.15482 -0.283856,0.12493 -0.04213,-0.0111 -0.110202,-0.0767 -0.151533,-0.14556 -0.185092,-0.30797 -0.17842,-0.30406 -0.307283,-0.17816 -0.06355,0.062 -0.154693,0.16966 -0.202595,0.23913 -0.25637,0.37214 -0.477175,0.22889 -0.255015,-0.16548 0.06175,-0.1096 0.122792,-0.23864 0.135733,-0.28679 0.02107,-0.0783 0.01505,-0.0846 -0.05467,-0.0592 -0.105536,0.0383 -1.068562,0.52111 -1.295837,0.64931 -0.302166,0.1705 -0.774774,0.38441 -1.016194,0.45987 -0.125201,0.039 -0.291984,0.10242 -0.370735,0.1406 -0.166983,0.0808 -0.31636,0.0571 -0.326944,-0.0523 -0.01154,-0.11943 -0.343998,-0.54369 -0.508623,-0.64904 -0.04063,-0.0258 -0.148877,-0.13197 -0.240117,-0.23523 -0.161315,-0.18262 -0.265749,-0.29041 -1.044937,-1.0788 -0.55422,-0.56069 -0.589082,-0.60228 -0.618676,-0.7378 -0.02407,-0.10961 -0.01906,-0.13009 0.04013,-0.16946 0.03712,-0.0244 0.148976,-0.14235 0.248643,-0.26156 0.367975,-0.44015 0.863608,-0.98871 1.075083,-1.1898 0.119682,-0.11378 0.229835,-0.21885 0.244832,-0.23355 0.06004,-0.0585 -0.258375,0.055 -0.57017,0.2031 -0.508324,0.24192 -1.137332,0.49687 -1.663863,0.67447 -0.262589,0.0886 -0.561494,0.199 -0.664221,0.2454 -0.102778,0.046 -0.287468,0.1188 -0.410461,0.16081 -0.490064,0.16765 -1.338273,0.52739 -1.350463,0.57289 -0.007,0.0265 -0.0321,0.0341 -0.05598,0.0167 -0.02358,-0.0167 -0.136888,0.008 -0.251603,0.055 -0.114717,0.0474 -0.357091,0.13071 -0.538521,0.18541 -0.181479,0.0543 -0.471355,0.14953 -0.644156,0.21091 -0.172852,0.0613 -0.424055,0.13929 -0.558233,0.17315 -0.134128,0.0334 -0.311043,0.089 -0.393105,0.12284 -0.145064,0.0599 -0.427665,0.14792 -0.652433,0.2038 -0.061,0.0153 -0.255015,0.0697 -0.431178,0.12117 -0.176112,0.0516 -0.326843,0.092 -0.334869,0.0897 -0.008,0 -0.09535,0.0237 -0.193969,0.0571 -0.312749,0.10584 -2.047187,0.43109 -2.386921,0.4476 -0.179524,0.008 -0.3637617,0.0279 -0.4093567,0.0425 -0.04565,0.0146 -0.260332,0.0404 -0.477174,0.0578 -0.354382,0.0279 -0.437146,0.0209 -0.819367,-0.0713 -0.233847,-0.0564 -0.444519,-0.0965 -0.468245,-0.0895 -0.08873,0.0265 -0.376251,-0.15503 -0.410561,-0.25941 -0.03009,-0.0918 -0.02558,-0.10974 0.04966,-0.19265 0.04565,-0.0502 0.09601,-0.0879 0.111606,-0.0836 0.01555,0.007 0.03411,-0.0432 0.04163,-0.1048 0.0095,-0.0798 0.04113,-0.12946 0.109198,-0.17182 0.265147,-0.16409 0.646665,-0.75153 0.698983,-1.07622 0.03661,-0.22847 -0.02107,-0.62403 -0.110704,-0.75711 -0.07579,-0.11253 -0.06561,-0.18819 0.0311,-0.23118 0.26314,-0.11678 0.335672,-0.20471 0.416129,-0.50446 0.05864,-0.21851 -0.02959,-0.59163 -0.205507,-0.86692 -0.202495,-0.31723 -0.53882,-0.66262 -0.756013,-0.77633 -0.539423,-0.28254 -0.558834,-0.33626 -0.186546,-0.5161 0.437598,-0.2114 0.735197,-0.53957 0.838629,-0.92488 0.05693,-0.2121 0.03762,-0.49638 -0.03511,-0.51589 -0.02658,-0.007 -0.03411,-0.0327 -0.01656,-0.0564 0.01856,-0.0258 -0.05116,-0.19105 -0.169091,-0.40168 -0.151985,-0.27146 -0.233345,-0.37723 -0.335872,-0.43673 -0.07444,-0.0432 -0.138492,-0.10842 -0.142354,-0.14521 -0.0085,-0.0807 0.105637,-0.13329 0.221657,-0.10221 0.250601,0.0669 0.697077,-0.0903 0.935989,-0.33048 0.205305,-0.20624 0.41347,-0.52606 0.438149,-0.67314 0.01806,-0.10738 0.008,-0.12403 -0.100371,-0.16444 -0.121788,-0.0453 -0.196327,-0.11657 -0.181178,-0.17308 0.005,-0.0167 0.163271,-0.0806 0.352726,-0.14144 0.200641,-0.0641 0.4103597,-0.16256 0.5022527,-0.23502 0.146017,-0.11518 0.160614,-0.14005 0.195375,-0.33438 0.05016,-0.28031 -0.01806,-0.60855 -0.188352,-0.90384 -0.07549,-0.13106 -0.133376,-0.25265 -0.128711,-0.27007 0.02057,-0.0767 0.167084,-0.0676 0.340488,0.0209 0.214484,0.10995 0.815804,0.24338 0.979076,0.21725 0.578597,-0.0924 1.176305,-0.49227 1.38141,-0.92405 0.05468,-0.11511 0.155397,-0.17677 0.247992,-0.1519 0.01956,0.007 0.138443,0.15385 0.264495,0.33034 0.2974,0.41646 0.921443,1.1914 1.178915,1.46383 0.372138,0.39388 0.807829,0.81362 0.997284,0.96084 0.10323,0.0802 0.424957,0.36615 0.715033,0.63538 0.925306,0.85883 1.113455,1.01526 1.793628,1.49143 0.867921,0.60758 1.015241,0.70993 1.27798,0.88802 0.14993,0.10166 0.502054,0.31508 0.782449,0.47429 0.280446,0.15921 0.597157,0.3456 0.703848,0.41423 0.218196,0.14033 1.078744,0.59692 1.100915,0.58417 0.008,-0.007 -0.02859,-0.0906 -0.08161,-0.19127 -0.123344,-0.23508 -0.177365,-0.51713 -0.185241,-0.96766 -0.0075,-0.43332 0.06676,-0.73342 0.252606,-1.01979 0.170494,-0.26261 0.218047,-0.31201 0.464584,-0.48306 0.240067,-0.16653 0.562797,-0.30428 0.996783,-0.42538 0.803164,-0.22415 1.229676,-0.21955 2.273409,0.0244 0.77668,0.1815 0.914871,0.20345 1.266595,0.20053 0.311644,-0.007 1.125744,-0.14256 1.476464,-0.25391 0.122291,-0.0383 0.409206,-0.14994 0.637586,-0.24693 0.681576,-0.28944 1.03054,-0.35347 1.604022,-0.29438 0.448732,0.046 0.82388,0.14702 1.076888,0.28902 0.158807,0.0894 0.217947,0.10799 0.29123,0.0913 0.110352,-0.0251 0.840937,-0.42879 0.97667,-0.53985 0.09586,-0.0785 0.09591,-0.0787 0.04765,-0.19126 -0.05764,-0.13469 -0.04013,-0.21698 0.07158,-0.33961 0.0938,-0.10284 0.218095,-0.18199 0.402233,-0.25627 0.109449,-0.0439 0.168086,-0.0383 0.475569,0.0439 0.192865,0.0523 0.381267,0.11956 0.418587,0.15015 0.202446,0.16576 0.398522,0.40245 0.421344,0.50857 0.01405,0.0662 0.04213,0.1689 0.06265,0.22882 0.02609,0.0771 0.01655,0.19286 -0.0321,0.39708 -0.06265,0.2622 -0.0623,0.29362 0.005,0.34713 0.03912,0.032 0.118077,0.0714 0.175311,0.0867 0.168036,0.0453 0.518555,0.32678 0.528537,0.42475 0.005,0.0467 0.04565,0.12681 0.09149,0.1776 0.134379,0.14967 0.136838,0.19524 0.0321,0.59616 -0.05408,0.20972 -0.09942,0.41297 -0.09912,0.45206 0,0.039 -0.02658,0.10974 -0.05949,0.15705 z m -1.578841,-1.98648 c -0.182432,7e-5 -0.330806,0.069 -0.990614,0.45944 l -0.506868,0.29996 0.02308,0.21286 c 0.01254,0.11699 0.0306,0.26875 0.04013,0.33724 0.009,0.0683 0.0085,0.23028 0,0.35967 -0.03561,0.4639 -0.05934,0.45394 0.340135,0.14339 0.195976,-0.15231 0.487457,-0.36197 0.647669,-0.46572 0.422599,-0.27382 0.439153,-0.29124 0.408654,-0.43185 -0.136435,-0.62841 -0.120434,-0.7077 0.153591,-0.76163 0.09395,-0.0188 0.205908,-0.0369 0.248844,-0.0418 0.129966,-0.0132 -0.189002,-0.11169 -0.363159,-0.11155 z m -0.418036,2.02563 c -0.03712,-0.0592 -0.106289,-0.14297 -0.153289,-0.18589 -0.09686,-0.0883 -0.118729,-0.0794 -0.415326,0.17119 -0.506819,0.42802 -0.599113,0.53282 -0.74252,0.84316 -0.0772,0.16687 -0.160162,0.33228 -0.18449,0.36747 -0.02458,0.0348 0.02658,0.0153 0.113161,-0.0453 0.08648,-0.0599 0.276835,-0.18806 0.423002,-0.28449 0.146116,-0.0965 0.430924,-0.28463 0.63287,-0.41806 0.201945,-0.13343 0.373292,-0.26463 0.380867,-0.29152 0.007,-0.0272 -0.01706,-0.0974 -0.05427,-0.15671 z m -0.671995,-2.14791 c -0.07649,-0.0926 -0.155748,-0.17287 -0.176062,-0.17831 -0.02057,-0.007 -0.152588,0.0557 -0.293989,0.13657 l -0.257021,0.14646 0.105186,0.20339 c 0.05784,0.11183 0.116421,0.23954 0.130116,0.28379 0.02308,0.075 0.04665,0.0669 0.341892,-0.11657 0.211826,-0.13169 0.312246,-0.21523 0.302916,-0.25195 -0.0075,-0.03 -0.07654,-0.13078 -0.153038,-0.22338 z m -0.553618,1.50201 c -0.01906,-0.38217 -0.159761,-0.95882 -0.284208,-1.16227 -0.158304,-0.25878 -0.351923,-0.3888 -0.767149,-0.5154 -0.854328,-0.26031 -1.572772,-0.17161 -2.486238,0.30686 -0.251354,0.13162 -1.474459,0.37409 -1.882111,0.37311 -0.22893,0 -0.442412,-0.0341 -0.872838,-0.13768 -1.075834,-0.25843 -1.708705,-0.31194 -2.221191,-0.18784 -0.708813,0.17147 -0.837374,0.21571 -1.15544,0.39743 -0.291531,0.16653 -0.359799,0.22429 -0.47642,0.40287 -0.220455,0.33751 -0.27202,0.52864 -0.262038,0.96809 0.01254,0.51163 0.114466,0.87165 0.312397,1.10409 0.08407,0.0987 0.171397,0.1845 0.19397,0.19049 0.02257,0.007 0.106741,0.114 0.187048,0.23976 0.08031,0.12584 0.157502,0.23182 0.171497,0.23558 0.01405,0.007 0.06441,0.0613 0.111908,0.12841 0.04765,0.0669 0.194269,0.2277 0.326241,0.35737 0.683582,0.67203 0.740665,0.73836 1.348907,1.56765 0.02558,0.0348 0.08382,0.10445 0.129162,0.15427 0.04514,0.0495 0.199838,0.24561 0.343346,0.43506 0.143459,0.18952 0.365117,0.43624 0.492674,0.54835 0.141,0.12396 0.255466,0.26066 0.292182,0.34894 0.07805,0.18757 0.518959,0.68757 0.736553,0.83521 0.385781,0.26185 1.536506,0.43736 2.159746,0.32943 0.621635,-0.10758 0.844547,-0.32462 1.02397,-0.997 0.08547,-0.31849 0.09179,-0.40342 0.06872,-0.85339 -0.01455,-0.28693 -0.006,-0.61274 0.02007,-0.76519 0.04264,-0.2477 0.04063,-0.26533 -0.03411,-0.26359 -0.208566,0.007 -0.325791,-0.0258 -0.497088,-0.12967 -0.150982,-0.0915 -0.216592,-0.16603 -0.350368,-0.39799 -0.195325,-0.33863 -0.223765,-0.44788 -0.186496,-0.71627 0.02358,-0.16946 0.04264,-0.21272 0.11898,-0.26812 0.133126,-0.0966 0.196126,-0.0286 0.16894,0.18332 -0.03361,0.26226 -0.02107,0.40301 0.04464,0.50662 0.09435,0.1482 0.291079,0.30609 0.510631,0.40984 0.293236,0.13865 0.399977,0.11531 0.662766,-0.14472 0.114767,-0.11357 0.242273,-0.22833 0.283405,-0.25495 0.09485,-0.0613 0.285512,-0.26282 0.706656,-0.74644 0.704099,-0.8086 0.777684,-0.93555 0.950234,-1.64026 0.108898,-0.44516 0.124097,-0.56047 0.110252,-0.84225 z m -2.558018,0.0815 c -0.09907,0.11434 -0.214485,0.22116 -0.256419,0.23746 -0.06225,0.0237 -0.07263,0.0453 -0.05643,0.11462 0.01104,0.0467 0.0066,0.13434 -0.0095,0.1944 -0.02257,0.0841 -0.05192,0.11155 -0.126704,0.11914 -0.120385,0.0118 -0.245283,-0.0715 -0.270965,-0.18192 -0.01806,-0.0779 -0.02457,-0.0787 -0.250198,-0.0293 -0.127307,0.0279 -0.280196,0.0404 -0.339635,0.0293 -0.09355,-0.0174 -0.106089,-0.0348 -0.09325,-0.12096 0.009,-0.0592 0.0316,-0.0957 0.05688,-0.089 0.08512,0.0223 0.793032,-0.19014 0.971401,-0.29222 0.101774,-0.0585 0.22552,-0.16799 0.276584,-0.24526 0.101022,-0.15287 0.192414,-0.20046 0.272821,-0.14193 0.07715,0.0564 0.02658,0.17398 -0.174608,0.40614 z m -4.571698,5.76211 c -0.09776,0.0543 -0.214887,0.13894 -0.260231,0.18813 -0.04514,0.0495 -0.185191,0.15252 -0.310842,0.22972 -0.125551,0.0772 -0.222461,0.1505 -0.215338,0.16291 0.007,0.0125 0.243778,-0.12445 0.525828,-0.30393 0.282101,-0.17949 0.496135,-0.33745 0.475669,-0.35096 -0.02057,-0.0132 -0.117274,0.0195 -0.215086,0.0741 z m -0.463932,-0.4028 c -0.14732,0.0551 -0.331909,0.1567 -0.41026,0.22596 -0.126403,0.11176 -0.09831,0.10271 0.25035,-0.0812 0.21599,-0.11392 0.407852,-0.20311 0.426311,-0.19816 0.01856,0.007 0.02658,-0.007 0.01756,-0.0188 -0.009,-0.0153 -0.136587,0.0167 -0.283906,0.0722 z m 0.005,-0.43513 c -0.140349,-0.15391 -0.175962,-0.15963 -0.330105,-0.053 -0.08106,0.0557 -0.28195,0.18541 -0.446526,0.28762 -0.164576,0.10229 -0.359347,0.24659 -0.432832,0.32072 -0.07353,0.0741 -0.192364,0.1721 -0.264043,0.21795 -0.300809,0.19189 -0.846101,0.69753 -0.874692,0.81111 -0.02007,0.0827 1.295235,-0.73196 1.636325,-1.01275 0.189704,-0.15615 0.42601,-0.31222 0.549002,-0.36267 0.11873,-0.0488 0.218748,-0.0994 0.22231,-0.1126 0.005,-0.0132 -0.02308,-0.0564 -0.05944,-0.0963 z m -0.433184,-0.46822 c -0.06571,-0.0699 -0.150932,-0.0118 -1.069064,0.72414 -0.428318,0.34351 -0.647367,0.54021 -0.631767,0.56724 0.04665,0.081 0.477123,-0.21161 0.926057,-0.62925 0.157302,-0.14632 0.398874,-0.33737 0.536864,-0.42461 0.264244,-0.16687 0.28496,-0.18757 0.23791,-0.23752 z m -0.416279,-0.38908 c -0.123244,0.0564 -0.917279,0.69593 -0.931876,0.75028 -0.005,0.0112 -0.145766,0.13872 -0.317414,0.28407 -0.31034,0.26268 -0.451141,0.39743 -0.423051,0.40503 0.02408,0.007 0.65735,-0.43506 0.831907,-0.58013 0.182934,-0.15203 0.593144,-0.44844 0.848659,-0.61322 l 0.170997,-0.1103 -0.05784,-0.0825 c -0.04615,-0.0662 -0.07048,-0.0766 -0.121387,-0.053 z m -0.25361,-0.40273 c -0.09485,-0.0865 -0.09691,-0.0865 -0.219801,-7e-5 -0.06827,0.0481 -0.289877,0.27655 -0.492574,0.50773 -0.514292,0.58689 -0.513239,0.58585 -0.740413,0.75091 -0.213834,0.15545 -0.2815,0.24303 -0.298404,0.38622 -0.01204,0.1027 -0.02207,0.11022 0.850466,-0.65141 0.3131,-0.27348 0.670291,-0.57295 0.793684,-0.66562 0.123394,-0.0926 0.219501,-0.18464 0.213582,-0.2045 -0.006,-0.0195 -0.05387,-0.0753 -0.10654,-0.12326 z m -0.792983,3.33674 c -0.04615,-0.0118 -0.177165,0.0334 -0.185592,0.0655 -0.01254,0.0474 0.07203,0.0648 0.136636,0.0279 0.05623,-0.0327 0.08327,-0.0838 0.04916,-0.0929 z m 0.3911,-3.77542 c -0.06366,-0.072 -0.128611,-0.13434 -0.144412,-0.13852 -0.01555,-0.007 -0.129513,0.12305 -0.252706,0.28275 -0.123244,0.15977 -0.320724,0.40963 -0.438902,0.55504 -0.118126,0.14556 -0.314303,0.39995 -0.436043,0.56536 -0.121739,0.16534 -0.254761,0.33061 -0.295593,0.36719 -0.04113,0.0369 -0.06782,0.0778 -0.05989,0.0916 0.01756,0.03 0.775126,-0.63887 1.052411,-0.92921 0.14391,-0.15085 0.611604,-0.60033 0.686643,-0.66004 0.005,0 -0.04815,-0.062 -0.111506,-0.1342 z m -0.752052,2.64617 c -0.07379,0.0481 -0.14105,0.11358 -0.149528,0.14507 -0.009,0.0334 0.05151,0.007 0.146067,-0.0655 0.192214,-0.14632 0.194722,-0.2045 0.005,-0.0794 z m 0.346005,-3.12025 c -0.01555,-0.007 -0.07248,0.0613 -0.126453,0.14611 -0.05392,0.0845 -0.170646,0.25362 -0.25943,0.37577 -0.08878,0.12207 -0.187899,0.26609 -0.220253,0.31995 -0.05598,0.0932 -0.05527,0.0952 0.01555,0.0425 0.09561,-0.0716 0.392303,-0.42196 0.409708,-0.48376 0.007,-0.0258 0.06732,-0.10082 0.133377,-0.16653 0.112809,-0.11211 0.132823,-0.2107 0.04715,-0.23369 z m -0.55733,0.31229 c -0.04264,0.0446 -0.15028,0.18625 -0.239765,0.31473 -0.08949,0.12848 -0.256118,0.3364 -0.370382,0.46216 -0.214336,0.23586 -0.32228,0.42998 -0.119182,0.2144 0.170245,-0.18067 0.774172,-0.95875 0.791428,-1.01958 0.008,-0.0293 -0.01957,-0.0167 -0.0621,0.0279 z m -0.204452,-0.23244 c -0.220656,0.1714 -0.856836,0.91116 -0.827443,0.96202 0.02508,0.0432 0.395362,-0.32922 0.632419,-0.63538 0.263342,-0.34009 0.307483,-0.41402 0.195024,-0.32664 z m 0.02207,-0.57609 c -0.08116,-0.0348 -0.08161,-0.0341 -0.03561,0.0557 0.02558,0.0502 0.06385,0.0863 0.08467,0.08 0.06531,-0.0195 0.03662,-0.0989 -0.04916,-0.13587 z m -0.277085,0.0258 c -0.02959,0.0167 -0.08693,0.0223 -0.127307,0.0111 -0.04063,-0.0111 -0.207813,0.007 -0.371987,0.0369 -0.308887,0.0592 -1.328493,0.18875 -1.378202,0.17538 -0.01555,-0.007 -0.125801,0.009 -0.245181,0.0293 -0.119282,0.0202 -0.232794,0.0321 -0.252157,0.0272 -0.04565,-0.0125 -0.928213,0.0683 -1.209813,0.11058 -0.244079,0.0369 -0.776529,0.0718 -1.177058,0.0779 -0.146568,0 -0.464333,0.0104 -0.706255,0.0188 -0.415126,0.0132 -1.310836,-0.0209 -1.96969,-0.0759 -0.16317,-0.0132 -0.576391,-0.0313 -0.918333,-0.0383 -0.341941,-0.008 -0.821874,-0.0313 -1.066505,-0.0516 -0.244631,-0.0202 -0.624043,-0.0369 -0.843142,-0.0369 -0.219049,0 -0.522619,-0.0118 -0.674604,-0.0286 -0.151986,-0.0167 -0.458012,-0.0369 -0.680021,-0.0467 -0.2219587,-0.01 -0.4474287,-0.0286 -0.5010007,-0.0432 -0.08683,-0.023 -0.106289,-0.01 -0.179824,0.12835 -0.06355,0.11907 -0.08126,0.19398 -0.0773,0.32643 0,0.0946 -0.01054,0.22966 -0.02909,0.30038 -0.04765,0.17837 -0.24097,0.50857 -0.331658,0.56709 -0.07032,0.0453 -0.07258,0.0627 -0.0336,0.25746 0.02308,0.11483 0.04665,0.27411 0.05251,0.35382 0.01104,0.14639 0.03712,0.18318 0.0939,0.12994 0.01706,-0.016 0.154442,-0.0314 0.305424,-0.0348 0.232544,-0.007 1.4228937,-0.0634 2.5812427,-0.1266 0.402435,-0.0223 0.783451,-0.0655 1.159051,-0.13315 0.167233,-0.03 0.318968,-0.0509 0.337177,-0.0453 0.01806,0.007 0.224366,-0.009 0.458163,-0.0314 0.709465,-0.0669 1.57533,-0.24645 2.862791,-0.59372 0.174357,-0.0474 0.414072,-0.11064 0.532701,-0.1413 0.118629,-0.0307 0.38202,-0.10932 0.585269,-0.17461 0.203299,-0.0655 0.379362,-0.11622 0.391198,-0.11295 0.01204,0.007 0.173455,-0.0446 0.359048,-0.10597 0.504711,-0.16709 0.546996,-0.17865 1.047996,-0.28742 0.937844,-0.20359 1.153534,-0.24275 1.534149,-0.27843 0.428669,-0.0404 0.489012,-0.0564 0.511032,-0.13872 0.01154,-0.0432 0.005,-0.0488 -0.03862,-0.0244 z m -0.826439,2.4014 c -0.02658,0.0244 -0.05402,0.0683 -0.06079,0.0974 -0.0075,0.0355 0.005,0.0321 0.03712,-0.009 0.06787,-0.086 0.08287,-0.14186 0.02357,-0.0884 z m 0.377706,-3.19738 c -0.180626,-0.0903 -0.4226,-0.22631 -0.537767,-0.30212 -0.115168,-0.0758 -0.364966,-0.22547 -0.555173,-0.3327 -0.729128,-0.41089 -1.188645,-0.70506 -1.827635,-1.17015 -0.08723,-0.0634 -0.330505,-0.23753 -0.540627,-0.38684 -0.505113,-0.35884 -0.905693,-0.68012 -1.226516,-0.98356 -0.144312,-0.13649 -0.510982,-0.46613 -0.814752,-0.73251 -0.30377,-0.26637 -0.593144,-0.52292 -0.643004,-0.57009 -0.470101,-0.44412 -0.882467,-0.86211 -0.959213,-0.9722 -0.01756,-0.0258 -0.144762,-0.17913 -0.2819,-0.34099 -0.137188,-0.16193 -0.343547,-0.42203 -0.458564,-0.57797 -0.227125,-0.3079 -0.347861,-0.45297 -0.385782,-0.46342 -0.01355,-0.007 -0.104283,0.0845 -0.202045,0.196 -0.234649,0.26777 -0.616418,0.51317 -1.001849,0.64388 -0.172049,0.0585 -0.343296,0.10856 -0.380565,0.11142 -0.03712,0.007 -0.07138,0.0188 -0.07589,0.0355 -0.01354,0.0509 0.236707,0.33473 0.383575,0.43527 0.07569,0.0516 0.226975,0.18576 0.336073,0.29766 0.109149,0.11183 0.219501,0.2091 0.245284,0.21606 0.02558,0.007 0.08773,0.0557 0.137689,0.10814 0.108697,0.1142 1.275273,0.95171 1.602668,1.15064 0.0627,0.0383 0.257923,0.1689 0.433786,0.29062 0.17581,0.12173 0.406848,0.2778 0.513338,0.34692 0.106591,0.069 0.280697,0.1829 0.387087,0.25272 0.463981,0.30476 1.191605,0.7447 1.467636,0.8874 0.164776,0.0851 0.359999,0.19634 0.433835,0.247 0.220153,0.15113 0.62319,0.37193 1.034604,0.56682 0.212679,0.10082 0.52914,0.25648 0.703195,0.34601 0.829247,0.42663 1.079497,0.54369 1.41547,0.66228 0.40058,0.14137 0.985697,0.29543 1.131362,0.29786 0.08056,0 0.08678,-0.007 0.04414,-0.0474 -0.02758,-0.0265 -0.19763,-0.12249 -0.378257,-0.21286 z m -0.175159,1.1822 c -0.385783,0.0327 -1.789766,0.34121 -2.235389,0.49143 -0.204402,0.069 -0.455103,0.14507 -0.557127,0.1691 -0.102028,0.0244 -0.261787,0.0738 -0.355036,0.11051 -0.09325,0.0369 -0.273071,0.0897 -0.399575,0.11755 -0.126554,0.0279 -0.309689,0.0812 -0.407049,0.11838 -0.09736,0.0369 -0.191411,0.0634 -0.209068,0.0592 -0.02759,-0.008 -0.3289,0.0702 -0.928113,0.23885 -0.421145,0.11845 -1.651625,0.33814 -2.090225,0.37312 -0.276985,0.0223 -0.717141,0.0732 -0.978174,0.11371 -0.564753,0.0876 -1.050955,0.13308 -1.42826,0.13364 -0.151534,2.1e-4 -0.337327,0.008 -0.412768,0.0167 -0.293638,0.0362 -1.1199757,0.0957 -1.3916437,0.10069 -0.157152,0.007 -0.360401,0.0118 -0.451743,0.0188 -0.131369,0.0111 -0.174356,0 -0.206258,-0.0439 -0.0321,-0.0453 -0.04314,-0.0474 -0.05362,-0.008 -0.007,0.0265 -0.07384,0.18576 -0.147823,0.35347 -0.113461,0.25725 -0.221406,0.42238 -0.535509,0.81954 -0.02608,0.0327 -0.01405,0.0439 0.04715,0.0446 0.121788,0 0.115318,0.0516 -0.02057,0.15928 l -0.121237,0.0963 0.181179,0.0733 c 0.401832,0.16256 0.698931,0.22241 0.945769,0.19057 0.129614,-0.0167 0.251554,-0.0265 0.271066,-0.0216 0.01957,0.007 0.08663,0 0.149076,-0.016 0.0625,-0.0132 0.254965,-0.0314 0.4276657,-0.0397 0.431327,-0.0202 0.41357,-0.0174 0.929117,-0.11713 1.000043,-0.19252 1.537208,-0.30442 1.641742,-0.34197 0.06024,-0.0216 0.375449,-0.10856 0.700436,-0.19315 0.324989,-0.0845 0.658303,-0.18234 0.740666,-0.21746 0.08241,-0.0348 0.285963,-0.10061 0.452395,-0.14569 0.166431,-0.0453 0.455504,-0.13719 0.642401,-0.20457 0.186897,-0.0676 0.479631,-0.1666 0.650527,-0.22067 0.485149,-0.15342 1.664063,-0.60326 2.386069,-0.91053 0.117674,-0.0502 0.42586,-0.16137 0.684937,-0.24735 0.543184,-0.18025 1.387932,-0.53379 1.651473,-0.69105 0.09952,-0.0592 0.246688,-0.13044 0.327044,-0.15789 0.144361,-0.0495 0.399226,-0.20262 0.383777,-0.23084 -0.005,-0.008 -0.131923,-0.007 -0.283405,0.008 z m -0.675056,-1.0264 c -0.371035,-0.13929 -1.075985,-0.47478 -1.294032,-0.6158 -0.05337,-0.0348 -0.225921,-0.12257 -0.383525,-0.19566 -0.630211,-0.29229 -1.154436,-0.565 -1.440499,-0.74923 -0.165579,-0.10667 -0.405546,-0.24568 -0.533253,-0.30894 -0.127657,-0.0634 -0.355987,-0.19384 -0.507371,-0.29014 -0.151383,-0.0963 -0.403537,-0.2502 -0.560289,-0.34211 -0.272871,-0.15991 -0.515345,-0.31912 -1.475963,-0.96899 -0.23821,-0.16109 -0.499294,-0.33243 -0.580153,-0.38064 -0.08086,-0.0481 -0.247139,-0.15984 -0.369378,-0.24798 -0.122291,-0.0881 -0.351323,-0.25167 -0.508976,-0.36336 -0.157653,-0.1117 -0.327896,-0.24004 -0.378358,-0.28519 -0.290377,-0.26003 -0.811742,-0.69767 -0.881163,-0.73982 -0.09345,-0.0564 -0.369129,-0.3927 -0.391601,-0.47736 -0.01053,-0.0397 -0.103781,-0.0853 -0.303418,-0.14841 -0.158507,-0.0502 -0.289425,-0.0867 -0.29093,-0.0812 0,0.007 0.0331,0.12576 0.0768,0.26735 0.180626,0.58472 0.06671,0.95972 -0.376152,1.23829 l -0.131218,0.0826 0.13187,0.2029 c 0.157704,0.24262 0.944416,0.91478 1.532544,1.30922 0.446627,0.29961 1.163114,0.70764 1.528932,0.87068 0.139646,0.062 0.35097,0.16486 0.46955,0.22791 0.118578,0.0634 0.323332,0.15824 0.454952,0.21147 1.774817,0.71753 1.70048,0.693 3.743353,1.23571 1.041175,0.27655 1.989905,0.52327 2.108333,0.54822 0.118377,0.0251 0.341841,0.0768 0.496636,0.11503 0.154744,0.0383 0.276482,0.0613 0.270363,0.0516 -0.006,-0.01 -0.189305,-0.0845 -0.4071,-0.16624 z m -0.443767,0.47944 c -0.228028,-0.0383 -0.464483,-0.0662 -0.525428,-0.0627 -0.0609,0.007 -0.284658,-0.0132 -0.497037,-0.0376 -0.212478,-0.0244 -0.531598,-0.0425 -0.709164,-0.0411 -0.779038,0.007 -1.231282,-0.0816 -3.532279,-0.68032 -2.814137,-0.7323 -4.119204,-1.04919 -4.6618867,-1.13204 -0.927661,-0.14165 -0.942358,-0.145 -0.950083,-0.21878 -0.01505,-0.14333 0.07303,-0.14256 1.0253227,0.009 0.487959,0.0776 2.607677,0.60827 5.470017,1.36949 1.21488,0.32302 1.821315,0.42927 2.606824,0.45652 0.68554,0.0237 1.505808,0.0924 1.872178,0.15677 0.664573,0.11671 0.245936,-0.0132 -1.613551,-0.50334 -2.023612,-0.53275 -2.572716,-0.69816 -3.467473,-1.04452 -0.810438,-0.3139 -1.027732,-0.40657 -1.308328,-0.55756 -0.146418,-0.0789 -0.421295,-0.21237 -0.6108,-0.29675 -0.380515,-0.16938 -1.12735,-0.59754 -1.57212,-0.90133 -0.37279,-0.2546 -1.243722,-0.98446 -1.397162,-1.17085 -0.1353317,-0.16443 -0.1031287,-0.18485 -0.3116447,0.19781 -0.249697,0.45827 -0.529591,0.71558 -0.931524,0.85654 l -0.289324,0.10145 0.188452,0.35096 c 0.103631,0.19314 0.218598,0.47038 0.255465,0.61636 0.06647,0.26268 0.06616,0.26811 -0.03611,0.57037 -0.08708,0.25655 -0.133676,0.33897 -0.293687,0.51825 -0.104685,0.1172 -0.294039,0.27933 -0.420844,0.3603 l -0.230587,0.14723 0.186746,0.0926 c 0.195776,0.097 0.609447,0.4692 0.697879,0.62778 0.02859,0.0509 0.116773,0.18374 0.196327,0.29515 0.125752,0.17586 0.14722,0.19286 0.164174,0.12981 0.02909,-0.10877 0.201694,-0.18708 0.302165,-0.1372 0.04615,0.023 0.249346,0.0523 0.451893,0.0648 0.2025467,0.0132 0.5113827,0.0369 0.6862907,0.0523 0.174909,0.0153 0.514192,0.03 0.753958,0.0321 0.239815,0 0.704851,0.0258 1.033399,0.0536 0.328599,0.0279 0.791226,0.0516 1.028083,0.0536 0.236808,0 0.588731,0.0181 0.781948,0.0362 0.765243,0.0712 1.82578,0.10611 2.237745,0.0736 0.08638,-0.007 0.349917,-0.0153 0.58562,-0.0181 0.235752,-0.007 0.66096,-0.0334 0.944967,-0.0683 0.283958,-0.0341 0.777283,-0.0812 1.096251,-0.10451 0.641549,-0.0467 1.239558,-0.12347 1.220547,-0.15649 -0.007,-0.0119 -0.199235,-0.0516 -0.426963,-0.0904 z"
       id="path26172"
       inkscape:connector-curvature="0"
       sodipodi:nodetypes="ccccccccccccccccccccccccccccccccscccccccscccccccccsccccccccccccsccsccscccccccccccccsccccccccccccccccccccccccscccccccccccccccccccccccccsccccccscccccccccscsccsscscccsccccccccccccccccccccccccccccccccccccccccccccccsccccccccccccccccccccccccccccccccccccccsccccccscccccccccccccccsscccccccscccccccccccscscccsccscccccccccccccccccccsccccccccccccccccccccccccccccccccccscccsccscccccccccccccccccccccccccccccccccccccccccccccccccccccscccccccccscccccccccccccccccccccccccccccscccccccccccccccccccccccccccccscccscccccc"
       inkscape:export-xdpi="100"
       inkscape:export-ydpi="100" />
  </g>
</svg>
